<?xml version="1.0" encoding="UTF-8" standalone="no"?><svg xmlns="http://www.w3.org/2000/svg" xmlns:xlink="http://www.w3.org/1999/xlink" contentScriptType="application/ecmascript" contentStyleType="text/css" height="664px" preserveAspectRatio="none" style="width:723px;height:664px;" version="1.1" viewBox="0 0 723 664" width="723px" zoomAndPan="magnify"><defs><filter height="300%" id="f2dajbob8nw9c" width="300%" x="-1" y="-1"><feGaussianBlur result="blurOut" stdDeviation="2.0"/><feColorMatrix in="blurOut" result="blurOut2" type="matrix" values="0 0 0 0 0 0 0 0 0 0 0 0 0 0 0 0 0 0 .4 0"/><feOffset dx="4.0" dy="4.0" in="blurOut2" result="blurOut3"/><feBlend in="SourceGraphic" in2="blurOut3" mode="normal"/></filter></defs><g><rect fill="#FFFFFF" filter="url(#f2dajbob8nw9c)" height="148.4688" style="stroke: #000000; stroke-width: 2.0;" width="602" x="109.5" y="103.2969"/><rect fill="#FFFFFF" height="102.2031" style="stroke: none; stroke-width: 1.0;" width="602" x="109.5" y="149.5625"/><rect fill="#FFFFFF" filter="url(#f2dajbob8nw9c)" height="206.7344" style="stroke: #000000; stroke-width: 2.0;" width="602" x="109.5" y="324.0313"/><rect fill="#FFFFFF" height="73.0703" style="stroke: none; stroke-width: 1.0;" width="602" x="109.5" y="457.6953"/><line style="stroke: #A80036; stroke-width: 1.0; stroke-dasharray: 5.0,5.0;" x1="27" x2="27" y1="86.2969" y2="576.8984"/><line style="stroke: #A80036; stroke-width: 1.0; stroke-dasharray: 5.0,5.0;" x1="147.5" x2="147.5" y1="86.2969" y2="576.8984"/><line style="stroke: #A80036; stroke-width: 1.0; stroke-dasharray: 5.0,5.0;" x1="445" x2="445" y1="86.2969" y2="576.8984"/><line style="stroke: #A80036; stroke-width: 1.0; stroke-dasharray: 5.0,5.0;" x1="551.5" x2="551.5" y1="86.2969" y2="576.8984"/><line style="stroke: #A80036; stroke-width: 1.0; stroke-dasharray: 5.0,5.0;" x1="660.5" x2="660.5" y1="86.2969" y2="576.8984"/><text fill="#000000" font-family="sans-serif" font-size="14" lengthAdjust="spacingAndGlyphs" textLength="32" x="8" y="82.9951">Alice</text><ellipse cx="27" cy="13" fill="#FEFECE" filter="url(#f2dajbob8nw9c)" rx="8" ry="8" style="stroke: #A80036; stroke-width: 2.0;"/><path d="M27,21 L27,48 M14,29 L40,29 M27,48 L14,63 M27,48 L40,63 " fill="#FEFECE" filter="url(#f2dajbob8nw9c)" style="stroke: #A80036; stroke-width: 2.0;"/><text fill="#000000" font-family="sans-serif" font-size="14" lengthAdjust="spacingAndGlyphs" textLength="32" x="8" y="588.8936">Alice</text><ellipse cx="27" cy="602.1953" fill="#FEFECE" filter="url(#f2dajbob8nw9c)" rx="8" ry="8" style="stroke: #A80036; stroke-width: 2.0;"/><path d="M27,610.1953 L27,637.1953 M14,618.1953 L40,618.1953 M27,637.1953 L14,652.1953 M27,637.1953 L40,652.1953 " fill="#FEFECE" filter="url(#f2dajbob8nw9c)" style="stroke: #A80036; stroke-width: 2.0;"/><rect fill="#FEFECE" filter="url(#f2dajbob8nw9c)" height="30.2969" style="stroke: #A80036; stroke-width: 1.5;" width="53" x="119.5" y="51"/><text fill="#000000" font-family="sans-serif" font-size="14" lengthAdjust="spacingAndGlyphs" textLength="39" x="126.5" y="70.9951">Client</text><rect fill="#FEFECE" filter="url(#f2dajbob8nw9c)" height="30.2969" style="stroke: #A80036; stroke-width: 1.5;" width="53" x="119.5" y="575.8984"/><text fill="#000000" font-family="sans-serif" font-size="14" lengthAdjust="spacingAndGlyphs" textLength="39" x="126.5" y="595.8936">Client</text><rect fill="#FEFECE" filter="url(#f2dajbob8nw9c)" height="30.2969" style="stroke: #A80036; stroke-width: 1.5;" width="70" x="408" y="51"/><text fill="#000000" font-family="sans-serif" font-size="14" lengthAdjust="spacingAndGlyphs" textLength="56" x="415" y="70.9951">Referrer</text><rect fill="#FEFECE" filter="url(#f2dajbob8nw9c)" height="30.2969" style="stroke: #A80036; stroke-width: 1.5;" width="70" x="408" y="575.8984"/><text fill="#000000" font-family="sans-serif" font-size="14" lengthAdjust="spacingAndGlyphs" textLength="56" x="415" y="595.8936">Referrer</text><rect fill="#FEFECE" filter="url(#f2dajbob8nw9c)" height="46.5938" style="stroke: #A80036; stroke-width: 1.5;" width="111" x="494.5" y="34.7031"/><text fill="#000000" font-family="sans-serif" font-size="14" lengthAdjust="spacingAndGlyphs" textLength="97" x="501.5" y="54.6982">Click Tracker /</text><text fill="#000000" font-family="sans-serif" font-size="14" lengthAdjust="spacingAndGlyphs" textLength="72" x="514" y="70.9951">Distributor</text><rect fill="#FEFECE" filter="url(#f2dajbob8nw9c)" height="46.5938" style="stroke: #A80036; stroke-width: 1.5;" width="111" x="494.5" y="575.8984"/><text fill="#000000" font-family="sans-serif" font-size="14" lengthAdjust="spacingAndGlyphs" textLength="97" x="501.5" y="595.8936">Click Tracker /</text><text fill="#000000" font-family="sans-serif" font-size="14" lengthAdjust="spacingAndGlyphs" textLength="72" x="514" y="612.1904">Distributor</text><rect fill="#FEFECE" filter="url(#f2dajbob8nw9c)" height="30.2969" style="stroke: #A80036; stroke-width: 1.5;" width="78" x="619.5" y="51"/><text fill="#000000" font-family="sans-serif" font-size="14" lengthAdjust="spacingAndGlyphs" textLength="64" x="626.5" y="70.9951">Publisher</text><rect fill="#FEFECE" filter="url(#f2dajbob8nw9c)" height="30.2969" style="stroke: #A80036; stroke-width: 1.5;" width="78" x="619.5" y="575.8984"/><text fill="#000000" font-family="sans-serif" font-size="14" lengthAdjust="spacingAndGlyphs" textLength="64" x="626.5" y="595.8936">Publisher</text><rect fill="none" height="148.4688" style="stroke: #000000; stroke-width: 2.0;" width="602" x="109.5" y="103.2969"/><polygon fill="#EEEEEE" points="109.5,103.2969,173.5,103.2969,173.5,110.2969,163.5,120.2969,109.5,120.2969,109.5,103.2969" style="stroke: #000000; stroke-width: 2.0;"/><text fill="#000000" font-family="sans-serif" font-size="13" font-weight="bold" lengthAdjust="spacingAndGlyphs" textLength="19" x="124.5" y="116.3638">alt</text><text fill="#000000" font-family="sans-serif" font-size="11" font-weight="bold" lengthAdjust="spacingAndGlyphs" textLength="63" x="188.5" y="115.5073">[Redirect]</text><polygon fill="#A80036" points="159,137.4297,149,141.4297,159,145.4297,155,141.4297" style="stroke: #A80036; stroke-width: 1.0;"/><line style="stroke: #A80036; stroke-width: 1.0;" x1="153" x2="444" y1="141.4297" y2="141.4297"/><text fill="#000000" font-family="sans-serif" font-size="13" lengthAdjust="spacingAndGlyphs" textLength="273" x="165" y="136.4966">&lt;a href="clicktracker.example/publisher"&gt;</text><line style="stroke: #000000; stroke-width: 1.0; stroke-dasharray: 2.0,2.0;" x1="109.5" x2="711.5" y1="150.5625" y2="150.5625"/><text fill="#000000" font-family="sans-serif" font-size="11" font-weight="bold" lengthAdjust="spacingAndGlyphs" textLength="64" x="114.5" y="160.7729">[Package]</text><polygon fill="#A80036" points="563,181.3672,553,185.3672,563,189.3672,559,185.3672" style="stroke: #A80036; stroke-width: 1.0;"/><line style="stroke: #A80036; stroke-width: 1.0;" x1="557" x2="659.5" y1="185.3672" y2="185.3672"/><text fill="#000000" font-family="sans-serif" font-size="13" lengthAdjust="spacingAndGlyphs" textLength="54" x="569" y="180.4341">Package</text><polygon fill="#A80036" points="456,210.5,446,214.5,456,218.5,452,214.5" style="stroke: #A80036; stroke-width: 1.0;"/><line style="stroke: #A80036; stroke-width: 1.0;" x1="450" x2="551" y1="214.5" y2="214.5"/><text fill="#000000" font-family="sans-serif" font-size="13" lengthAdjust="spacingAndGlyphs" textLength="83" x="462" y="209.5669">Package URL</text><polygon fill="#A80036" points="159,239.6328,149,243.6328,159,247.6328,155,243.6328" style="stroke: #A80036; stroke-width: 1.0;"/><line style="stroke: #A80036; stroke-width: 1.0;" x1="153" x2="444" y1="243.6328" y2="243.6328"/><text fill="#000000" font-family="sans-serif" font-size="13" lengthAdjust="spacingAndGlyphs" textLength="262" x="165" y="238.6997">&lt;a href="distributor.example/package"&gt;</text><polygon fill="#A80036" points="38,275.7656,28,279.7656,38,283.7656,34,279.7656" style="stroke: #A80036; stroke-width: 1.0;"/><line style="stroke: #A80036; stroke-width: 1.0;" x1="32" x2="147" y1="279.7656" y2="279.7656"/><text fill="#000000" font-family="sans-serif" font-size="13" lengthAdjust="spacingAndGlyphs" textLength="97" x="44" y="274.8325">Rendered page</text><polygon fill="#A80036" points="136,304.8984,146,308.8984,136,312.8984,140,308.8984" style="stroke: #A80036; stroke-width: 1.0;"/><line style="stroke: #A80036; stroke-width: 1.0;" x1="27" x2="142" y1="308.8984" y2="308.8984"/><text fill="#000000" font-family="sans-serif" font-size="13" lengthAdjust="spacingAndGlyphs" textLength="54" x="34" y="303.9653">Click link</text><rect fill="none" height="206.7344" style="stroke: #000000; stroke-width: 2.0;" width="602" x="109.5" y="324.0313"/><polygon fill="#EEEEEE" points="109.5,324.0313,173.5,324.0313,173.5,331.0313,163.5,341.0313,109.5,341.0313,109.5,324.0313" style="stroke: #000000; stroke-width: 2.0;"/><text fill="#000000" font-family="sans-serif" font-size="13" font-weight="bold" lengthAdjust="spacingAndGlyphs" textLength="19" x="124.5" y="337.0981">alt</text><text fill="#000000" font-family="sans-serif" font-size="11" font-weight="bold" lengthAdjust="spacingAndGlyphs" textLength="63" x="188.5" y="336.2417">[Redirect]</text><polygon fill="#A80036" points="540,358.1641,550,362.1641,540,366.1641,544,362.1641" style="stroke: #A80036; stroke-width: 1.0;"/><line style="stroke: #A80036; stroke-width: 1.0;" x1="148" x2="546" y1="362.1641" y2="362.1641"/><text fill="#000000" font-family="sans-serif" font-size="13" lengthAdjust="spacingAndGlyphs" textLength="193" x="155" y="357.231">clicktracker.example/publisher</text><polygon fill="#A80036" points="159,387.2969,149,391.2969,159,395.2969,155,391.2969" style="stroke: #A80036; stroke-width: 1.0;"/><line style="stroke: #A80036; stroke-width: 1.0; stroke-dasharray: 2.0,2.0;" x1="153" x2="551" y1="391.2969" y2="391.2969"/><text fill="#000000" font-family="sans-serif" font-size="13" lengthAdjust="spacingAndGlyphs" textLength="214" x="165" y="386.3638">302 publisher.example/page.html</text><polygon fill="#A80036" points="648.5,416.4297,658.5,420.4297,648.5,424.4297,652.5,420.4297" style="stroke: #A80036; stroke-width: 1.0;"/><line style="stroke: #A80036; stroke-width: 1.0;" x1="148" x2="654.5" y1="420.4297" y2="420.4297"/><text fill="#000000" font-family="sans-serif" font-size="13" lengthAdjust="spacingAndGlyphs" textLength="186" x="155" y="415.4966">publisher.example/page.html</text><polygon fill="#A80036" points="159,445.5625,149,449.5625,159,453.5625,155,449.5625" style="stroke: #A80036; stroke-width: 1.0;"/><line style="stroke: #A80036; stroke-width: 1.0; stroke-dasharray: 2.0,2.0;" x1="153" x2="659.5" y1="449.5625" y2="449.5625"/><text fill="#000000" font-family="sans-serif" font-size="13" lengthAdjust="spacingAndGlyphs" textLength="32" x="165" y="444.6294">Page</text><line style="stroke: #000000; stroke-width: 1.0; stroke-dasharray: 2.0,2.0;" x1="109.5" x2="711.5" y1="458.6953" y2="458.6953"/><text fill="#000000" font-family="sans-serif" font-size="11" font-weight="bold" lengthAdjust="spacingAndGlyphs" textLength="64" x="114.5" y="468.9058">[Package]</text><polygon fill="#A80036" points="540,489.5,550,493.5,540,497.5,544,493.5" style="stroke: #A80036; stroke-width: 1.0;"/><line style="stroke: #A80036; stroke-width: 1.0;" x1="148" x2="546" y1="493.5" y2="493.5"/><text fill="#000000" font-family="sans-serif" font-size="13" lengthAdjust="spacingAndGlyphs" textLength="182" x="155" y="488.5669">distributor.example/package</text><polygon fill="#A80036" points="159,518.6328,149,522.6328,159,526.6328,155,522.6328" style="stroke: #A80036; stroke-width: 1.0;"/><line style="stroke: #A80036; stroke-width: 1.0; stroke-dasharray: 2.0,2.0;" x1="153" x2="551" y1="522.6328" y2="522.6328"/><text fill="#000000" font-family="sans-serif" font-size="13" lengthAdjust="spacingAndGlyphs" textLength="54" x="165" y="517.6997">Package</text><polygon fill="#A80036" points="38,554.7656,28,558.7656,38,562.7656,34,558.7656" style="stroke: #A80036; stroke-width: 1.0;"/><line style="stroke: #A80036; stroke-width: 1.0;" x1="32" x2="147" y1="558.7656" y2="558.7656"/><text fill="#000000" font-family="sans-serif" font-size="13" lengthAdjust="spacingAndGlyphs" textLength="45" x="44" y="553.8325">Render</text><!--
@startUML Privacy
actor Alice
participant Client
participant Referrer
participant "Click Tracker /\nDistributor" as Inter

alt Redirect
  Referrer -> Client: <a href="clicktracker.example/publisher">
else Package
  Publisher -> Inter: Package
  Inter -> Referrer: Package URL
  Referrer -> Client: <a href="distributor.example/package">
end
Client -> Alice: Rendered page
Alice -> Client: Click link

alt Redirect
  Client -> Inter: clicktracker.example/publisher
  Inter - -> Client: 302 publisher.example/page.html
  Client -> Publisher: publisher.example/page.html
  Publisher - -> Client: Page
else Package
  Client -> Inter: distributor.example/package
  Inter - -> Client: Package
end

Client -> Alice: Render

@endUML

PlantUML version 1.2017.15(Mon Jul 03 09:45:34 PDT 2017)
(GPL source distribution)
Java Runtime: OpenJDK Runtime Environment
JVM: OpenJDK 64-Bit Server VM
Java Version: 11.0.3+1-Debian-1
Operating System: Linux
OS Version: 4.19.37-5rodete1-amd64
Default Encoding: UTF-8
Language: en
Country: US
--></g></svg>